<svg width="124" height="39" viewBox="0 0 124 39" fill="none" xmlns="http://www.w3.org/2000/svg">
<path d="M27.491 38C52.2409 38 76.9905 14 101.74 14M27.491 38C12.7312 38 8.13881 33.6823 8.74235 28.7097M27.491 38C11.6421 38 4.10404 34.3453 2.38782 29.8882M101.74 14C106.779 14 110.716 16.9889 112.835 20.8571M101.74 14C108.006 14 113.134 15.5386 116.782 17.8366M101.74 38C80.7981 38 61.2523 26.6795 41.4527 20.8571M101.74 38C108.96 38 112.807 34.7789 114.08 30.6968M101.74 38C114.122 38 120.609 34.3453 122.446 29.8882M8.74235 28.7097C7.78764 28.205 5.18013 27.7342 2.38782 29.8882M8.74235 28.7097C8.91164 27.3149 9.4897 25.8686 10.3668 24.4516M2.38782 29.8882C1.52289 27.6419 2.13663 25.1919 3.91043 22.9032M10.3668 24.4516C9.49787 23.0323 6.99005 20.7355 3.91043 22.9032M10.3668 24.4516C11.4541 22.6952 13.0008 20.9838 14.7981 19.4713M3.91043 22.9032C5.3527 21.0423 7.56192 19.288 10.3668 17.8366M14.7981 19.4713C18.5693 16.2977 23.4436 14 27.491 14C20.7428 14 14.8081 15.5386 10.3668 17.8366M14.7981 19.4713C14.8172 18.3815 13.9577 16.5289 10.3668 17.8366M114.08 30.6968C115.133 31.7233 118.28 32.9987 122.446 29.8882M114.08 30.6968C114.545 29.2076 114.667 27.6038 114.485 26M122.446 29.8882C123.372 27.6419 123.116 25.1919 121.839 22.9032M114.485 26C116.162 26.6566 119.979 26.9565 121.839 22.9032M114.485 26C114.286 24.2348 113.718 22.4696 112.835 20.8571M121.839 22.9032C120.8 21.0423 119.086 19.288 116.782 17.8366M112.835 20.8571C114.017 21.1292 116.461 20.906 116.782 17.8366" stroke="white" stroke-opacity="0.9" stroke-width="2" stroke-linecap="round"/>
<path d="M54.624 24.1294C55.1367 24.1294 55.3931 24.363 55.3931 24.8301C55.3931 25.1605 55.1538 25.5023 54.6753 25.8555C53.3993 26.7897 51.4909 27.6613 48.9502 28.4702C46.4209 29.2791 44.2106 29.6836 42.3193 29.6836C40.4281 29.6836 39.0324 29.4842 38.1323 29.0854C37.2437 28.6981 36.6284 28.0088 36.2866 27.0176C35.6258 27.6898 34.6745 28.305 33.4326 28.8633C32.1908 29.4102 30.8748 29.6836 29.4849 29.6836C28.1063 29.6836 26.9784 29.5583 26.1011 29.3076C25.2238 29.0684 24.4263 28.6981 23.7085 28.1968C22.9907 27.6955 22.4211 27.0119 21.9995 26.146C21.5894 25.2687 21.3843 24.249 21.3843 23.0869C21.3843 21.9248 21.5609 20.7684 21.9141 19.6177C22.2673 18.467 22.8084 17.3675 23.5376 16.3193C24.2782 15.2598 25.1611 14.3255 26.1865 13.5166C27.2119 12.7077 28.4538 12.064 29.9121 11.5854C31.3818 11.1069 32.9598 10.8677 34.646 10.8677C37.4146 10.8677 39.716 11.557 41.5503 12.9355C42.1883 8.87956 42.5073 6.23063 42.5073 4.98877L42.4902 4.49316C42.4902 3.9235 43.0428 3.63867 44.1479 3.63867L51.8042 3.99756C52.0776 3.99756 52.2941 4.08301 52.4536 4.25391C52.6131 4.41341 52.6929 4.5957 52.6929 4.80078C52.6929 6.57812 51.7529 10.224 49.873 15.7383C47.9932 21.2412 47.0532 24.2604 47.0532 24.7959C47.0532 25.3314 47.1273 25.7131 47.2754 25.9409C47.4349 26.1688 47.7596 26.2827 48.2495 26.2827C48.7394 26.2827 49.5825 26.0776 50.7788 25.6675C51.9751 25.2573 52.8752 24.8984 53.479 24.5908C54.0828 24.2832 54.4645 24.1294 54.624 24.1294ZM33.4497 25.3428C35.5916 25.3428 37.3804 23.7021 38.8159 20.4209C39.6362 18.8486 40.0464 17.4587 40.0464 16.251C40.0464 15.5902 39.8869 15.0832 39.5679 14.73C39.2603 14.3768 38.6393 14.2002 37.7051 14.2002C36.7822 14.2002 35.7682 14.6331 34.6631 15.499C33.5579 16.3649 32.6636 17.453 31.98 18.7632C31.3078 20.062 30.9717 21.2298 30.9717 22.2666C30.9717 23.292 31.1995 24.061 31.6553 24.5737C32.111 25.0864 32.7091 25.3428 33.4497 25.3428Z" fill="#B1B4EF" fill-opacity="0.47"/>
<path d="M50.624 21.1294C51.1367 21.1294 51.3931 21.363 51.3931 21.8301C51.3931 22.1605 51.1538 22.5023 50.6753 22.8555C49.3993 23.7897 47.4909 24.6613 44.9502 25.4702C42.4209 26.2791 40.2106 26.6836 38.3193 26.6836C36.4281 26.6836 35.0324 26.4842 34.1323 26.0854C33.2437 25.6981 32.6284 25.0088 32.2866 24.0176C31.6258 24.6898 30.6745 25.305 29.4326 25.8633C28.1908 26.4102 26.8748 26.6836 25.4849 26.6836C24.1063 26.6836 22.9784 26.5583 22.1011 26.3076C21.2238 26.0684 20.4263 25.6981 19.7085 25.1968C18.9907 24.6955 18.4211 24.0119 17.9995 23.146C17.5894 22.2687 17.3843 21.249 17.3843 20.0869C17.3843 18.9248 17.5609 17.7684 17.9141 16.6177C18.2673 15.467 18.8084 14.3675 19.5376 13.3193C20.2782 12.2598 21.1611 11.3255 22.1865 10.5166C23.2119 9.70768 24.4538 9.06396 25.9121 8.58545C27.3818 8.10693 28.9598 7.86768 30.646 7.86768C33.4146 7.86768 35.716 8.55697 37.5503 9.93555C38.1883 5.87956 38.5073 3.23063 38.5073 1.98877L38.4902 1.49316C38.4902 0.923503 39.0428 0.638672 40.1479 0.638672L47.8042 0.997559C48.0776 0.997559 48.2941 1.08301 48.4536 1.25391C48.6131 1.41341 48.6929 1.5957 48.6929 1.80078C48.6929 3.57812 47.7529 7.22396 45.873 12.7383C43.9932 18.2412 43.0532 21.2604 43.0532 21.7959C43.0532 22.3314 43.1273 22.7131 43.2754 22.9409C43.4349 23.1688 43.7596 23.2827 44.2495 23.2827C44.7394 23.2827 45.5825 23.0776 46.7788 22.6675C47.9751 22.2573 48.8752 21.8984 49.479 21.5908C50.0828 21.2832 50.4645 21.1294 50.624 21.1294ZM29.4497 22.3428C31.5916 22.3428 33.3804 20.7021 34.8159 17.4209C35.6362 15.8486 36.0464 14.4587 36.0464 13.251C36.0464 12.5902 35.8869 12.0832 35.5679 11.73C35.2603 11.3768 34.6393 11.2002 33.7051 11.2002C32.7822 11.2002 31.7682 11.6331 30.6631 12.499C29.5579 13.3649 28.6636 14.453 27.98 15.7632C27.3078 17.062 26.9717 18.2298 26.9717 19.2666C26.9717 20.292 27.1995 21.061 27.6553 21.5737C28.111 22.0864 28.7091 22.3428 29.4497 22.3428Z" fill="white" fill-opacity="0.98"/>
</svg>
